<svg xmlns="http://www.w3.org/2000/svg" width="266.405" height="266.405" viewBox="0 0 266.405 266.405">
  <defs>
    <style>
      .cls-1, .cls-2 {
        fill: #3a9ac2;
      }

      .cls-2 {
        stroke: #3a9ac2;
        stroke-linecap: round;
        stroke-linejoin: round;
        stroke-width: 3px;
        fill-rule: evenodd;
      }
    </style>
  </defs>
  <g id="Flylang-Color" transform="translate(-392.095 -344.095)">
    <path id="路径_8" data-name="路径 8" class="cls-1" d="M144.381,182.877H.015c-.006-.457-.031-2.731,0-2.749l1.269-6.717,1.964-6.424,1.843-5.762L7.514,154.1l2.884-6.548,0-.005c.334-.624,3.268-6.1,3.3-6.126L16.283,137l2.383-3.5,2.458-2.878,2.892-2.937L22.862,126.1,21.4,124.181l-.46-1.627v-2.921l1-2.005,3.613-4.088,5.076-3.838,3.807-3,4.381-2.921,5.076-3.363,3.347-1.627-2.383-1.04L41.7,95.49l-3.537-3.8-2-3.838L34.4,84.019l-1.383-3.67H30.356l-3.423-.293-3.648-1.21L21.013,77.3l-1.5-2.711-.535-3.632,1.075-4.006,1.654-2.169,2.847-2,2.379-.969c0-.006-.006-.1-.014-.249-.211-3.991-.312-6.113-.292-6.136l-1-7.619L24.9,44.389V37.163l0-.02c.246-1.015,1.472-6.082,1.5-6.112l.129-.318c1.6-3.956,2.42-5.97,2.444-5.986l2.423-4.375,2.039-2.174c.176-.215,4.319-5.26,4.459-5.26L47.4,5.91l5.27-3L58.477.987,63.088,0h7.056L78,1.433l5.724,1.084,4.7,1.406L95,6.7l5.79,4.208,4.9,4.361,3.553,5.37c.193.387,1.874,3.763,1.871,3.8l.021.063c.312.924,1.037,3.08,1.037,3.151l1.234,5.714,1,5.926v9.121l-.694,4.049-.73,3.167-1.042,3.794,5.983.247,2.457,1.829,1.5,2.516v1.235l.16,2.912-.16,2.691-1.5,2.714-2.253,2.791L114.648,77.8h-3.616l-2.232-.613h-1.181l-.593,2.967v2.135l-2.423,3.8-3.447,5.494-2.624,3.285c-.04.033-3.949,3.245-3.955,3.316l4.049,3.1c.074.058,7.4,5.773,7.42,5.811l7.667,6.484,2.641,2.714v3.857l-.593,1.309-1.548,2.63v2.226l1.818.907,4.291,2.989,4.1,3.49,3.683,4.963,2.523,5.048,2.508,5.056,2.795,5.571,2.66,7.524,2.339,7.193,2.541,8.327.905,3.657v1.847ZM53.046,119.345v49.02H63.932V147.857H88.993v-7.819H63.932V129.323H92.109v-9.978Z" transform="translate(453.445 400.22)"/>
    <path id="路径_2" data-name="路径 2" class="cls-2" d="M267.823,151.9A115.821,115.821,0,1,1,152,36.082,115.821,115.821,0,0,1,267.823,151.9Zm-2.18-11.185L283.705,151.9l-18.062,11.185,15.519,14.507-19.879,7.448,12.4,17.258-20.995,3.426,8.823,19.36-21.254-.753,4.879,20.709-20.709-4.879.753,21.254-19.36-8.823L202.4,273.588l-17.258-12.4-7.448,19.879-14.507-15.519L152,283.605l-11.185-18.062-14.507,15.519-7.448-19.879-17.258,12.4L98.18,252.594l-19.36,8.823.753-21.254-20.709,4.879,4.879-20.709-21.254.753,8.823-19.36L30.317,202.3l12.4-17.258-19.879-7.448,15.519-14.507L20.3,151.9l18.062-11.185L22.843,126.211l19.879-7.448-12.4-17.258L51.312,98.08,42.488,78.72l21.254.753L58.864,58.764l20.709,4.879L78.82,42.388l19.36,8.823,3.426-20.995,17.258,12.4,7.448-19.879,14.507,15.519L152,20.2l11.185,18.062,14.507-15.519,7.448,19.879,17.258-12.4,3.426,20.995,19.36-8.823-.753,21.254,20.709-4.879-4.879,20.709,21.254-.753-8.823,19.36,20.995,3.426-12.4,17.258,19.879,7.448Z" transform="translate(373.295 325.395)"/>
    <path id="路径_4" data-name="路径 4" class="cls-1" d="M124.52,249.04a124.445,124.445,0,0,1-88-212.513A125.034,125.034,0,0,1,76.1,9.806,124.077,124.077,0,0,1,194.075,21.3a125.259,125.259,0,0,1,45.158,54.809,124.065,124.065,0,0,1-11.5,117.961,125.26,125.26,0,0,1-54.809,45.158,123.743,123.743,0,0,1-48.406,9.806ZM82.03,215.085a100.12,100.12,0,0,0,42.46,9.378c8.161,0,31.479-1.312,48.436-11.949,15.666-6.416,21.743-13.221,25.663-18.438,3.338-3.354,4.269-6.788,7.118-10.6h-.026l3.425-5.456,5.187-8.8h0a.011.011,0,0,1-.009-.005c-.168-.258,4.141-9.987,4.185-10.085l1.707-4.865,1.756-5.508,2.585-12.1.53-5.509-.014-.02h.011a101.15,101.15,0,0,0-.211-17.492l-18.6-8.245a7.535,7.535,0,0,1-3.793-9.878l9.668-21.811a100.642,100.642,0,0,0-69.017-49.154L128.972,38.012a7.427,7.427,0,0,1-10.537-.238L105.817,24.551a101.364,101.364,0,0,0-56.36,31.778l-.058.019c-.03.041-3.338,4.523-6.5,9.63C39.755,71.059,36.646,76.944,36.617,77l.843.515-.943-.495L45.73,95.07a7.368,7.368,0,0,1,.149,5.706,7.464,7.464,0,0,1-3.941,4.145l-17.65,7.851a100.363,100.363,0,0,0,2.921,37.238l-.034,0,.005.013.1.232c.089.324.178.641.279,1h.138l1.23,2.948,5.892,14.123,4.31,8.2a39.91,39.91,0,0,1,2.968,4.8,17.306,17.306,0,0,0,2.4,3.637l.016,0a101.3,101.3,0,0,0,7.627,8.839A83.611,83.611,0,0,0,64.093,204C71.567,209.318,82.03,215.085,82.03,215.085ZM221.75,85.556a8.151,8.151,0,0,0-5.71,2.318,8.193,8.193,0,1,0,13.9,5.878,8.152,8.152,0,0,0-7.955-8.193C221.929,85.557,221.862,85.556,221.75,85.556ZM26.419,85.188a8.14,8.14,0,0,0-5.707,2.317,8.193,8.193,0,1,0,13.9,5.878,8.151,8.151,0,0,0-7.956-8.192C26.6,85.189,26.532,85.188,26.419,85.188ZM124.1,11.06a8.144,8.144,0,0,0-5.71,2.318,8.194,8.194,0,1,0,13.9,5.879,8.134,8.134,0,0,0-7.955-8.193C124.278,11.061,124.209,11.06,124.1,11.06Z" transform="translate(400.777 352.777)"/>
  </g>
</svg>
